<svg width="20" height="20" viewBox="0 0 20 20" fill="none" xmlns="http://www.w3.org/2000/svg">
<path d="M13.5 5.00065C14.0523 5.00065 14.5 4.62755 14.5 4.16732C14.5 3.70708 14.0523 3.33398 13.5 3.33398C12.9477 3.33398 12.5 3.70708 12.5 4.16732C12.5 4.62755 12.9477 5.00065 13.5 5.00065Z" stroke="#8590A2" stroke-width="2" stroke-linecap="round" stroke-linejoin="round"/>
<path d="M13.5 10.834C14.0523 10.834 14.5 10.4609 14.5 10.0007C14.5 9.54041 14.0523 9.16732 13.5 9.16732C12.9477 9.16732 12.5 9.54041 12.5 10.0007C12.5 10.4609 12.9477 10.834 13.5 10.834Z" stroke="#8590A2" stroke-width="2" stroke-linecap="round" stroke-linejoin="round"/>
<path d="M13.5 16.6673C14.0523 16.6673 14.5 16.2942 14.5 15.834C14.5 15.3737 14.0523 15.0007 13.5 15.0007C12.9477 15.0007 12.5 15.3737 12.5 15.834C12.5 16.2942 12.9477 16.6673 13.5 16.6673Z" stroke="#8590A2" stroke-width="2" stroke-linecap="round" stroke-linejoin="round"/>
<path d="M6.5 5.00065C7.05228 5.00065 7.5 4.62755 7.5 4.16732C7.5 3.70708 7.05228 3.33398 6.5 3.33398C5.94772 3.33398 5.5 3.70708 5.5 4.16732C5.5 4.62755 5.94772 5.00065 6.5 5.00065Z" stroke="#8590A2" stroke-width="2" stroke-linecap="round" stroke-linejoin="round"/>
<path d="M6.5 10.834C7.05228 10.834 7.5 10.4609 7.5 10.0007C7.5 9.54041 7.05228 9.16732 6.5 9.16732C5.94772 9.16732 5.5 9.54041 5.5 10.0007C5.5 10.4609 5.94772 10.834 6.5 10.834Z" stroke="#8590A2" stroke-width="2" stroke-linecap="round" stroke-linejoin="round"/>
<path d="M6.5 16.6673C7.05228 16.6673 7.5 16.2942 7.5 15.834C7.5 15.3737 7.05228 15.0007 6.5 15.0007C5.94772 15.0007 5.5 15.3737 5.5 15.834C5.5 16.2942 5.94772 16.6673 6.5 16.6673Z" stroke="#8590A2" stroke-width="2" stroke-linecap="round" stroke-linejoin="round"/>
</svg>
