<svg width="20" height="20" viewBox="0 0 20 20" fill="none" xmlns="http://www.w3.org/2000/svg">
<path d="M9.99998 10.8337C10.4602 10.8337 10.8333 10.4606 10.8333 10.0003C10.8333 9.54009 10.4602 9.16699 9.99998 9.16699C9.53974 9.16699 9.16665 9.54009 9.16665 10.0003C9.16665 10.4606 9.53974 10.8337 9.99998 10.8337Z" stroke="#E34935" stroke-width="2" stroke-linecap="round" stroke-linejoin="round"/>
<path d="M15.8333 10.8337C16.2935 10.8337 16.6666 10.4606 16.6666 10.0003C16.6666 9.54009 16.2935 9.16699 15.8333 9.16699C15.3731 9.16699 15 9.54009 15 10.0003C15 10.4606 15.3731 10.8337 15.8333 10.8337Z" stroke="#E34935" stroke-width="2" stroke-linecap="round" stroke-linejoin="round"/>
<path d="M4.16665 10.8337C4.62688 10.8337 4.99998 10.4606 4.99998 10.0003C4.99998 9.54009 4.62688 9.16699 4.16665 9.16699C3.70641 9.16699 3.33331 9.54009 3.33331 10.0003C3.33331 10.4606 3.70641 10.8337 4.16665 10.8337Z" stroke="#E34935" stroke-width="2" stroke-linecap="round" stroke-linejoin="round"/>
</svg>
