<svg width="20" height="20" viewBox="0 0 20 20" fill="none" xmlns="http://www.w3.org/2000/svg">
<g clip-path="url(#clip0_3275_2902)">
<path d="M3.75 18.125H2.5C2.15625 18.125 1.875 17.8438 1.875 17.5V2.5C1.875 2.15625 2.15625 1.875 2.5 1.875H8.75V5C8.75 5.69141 9.30859 6.25 10 6.25H13.125V11.25H15V6.03516C15 5.37109 14.7383 4.73438 14.2695 4.26562L10.7344 0.730469C10.2656 0.261719 9.62891 0 8.96484 0H2.5C1.12109 0 0 1.12109 0 2.5V17.5C0 18.8789 1.12109 20 2.5 20H3.75V18.125Z" fill="white"/>
<path d="M18.2176 20C17.6372 20 17.1408 19.8762 16.7283 19.6286C16.3159 19.381 15.9977 19.0344 15.7737 18.5887C15.5548 18.1376 15.4453 17.6066 15.4453 16.9959C15.4453 16.5392 15.5064 16.1293 15.6286 15.7662C15.7559 15.3975 15.9392 15.0839 16.1785 14.8253C16.4178 14.5612 16.708 14.3576 17.0491 14.2146C17.3953 14.0715 17.7848 14 18.2176 14C18.4722 14 18.7293 14.0358 18.9889 14.1073C19.2537 14.1733 19.4828 14.2696 19.6763 14.3961C19.8036 14.4732 19.8901 14.5695 19.9359 14.685C19.9818 14.8005 19.9945 14.9161 19.9741 15.0316C19.9589 15.1472 19.9156 15.2462 19.8443 15.3287C19.7781 15.4113 19.6941 15.4635 19.5923 15.4856C19.4904 15.5076 19.3759 15.4828 19.2486 15.4113C19.0959 15.3122 18.9355 15.2407 18.7675 15.1967C18.5994 15.1527 18.4289 15.1307 18.2558 15.1307C17.9146 15.1307 17.627 15.205 17.3928 15.3535C17.1637 15.4966 16.9906 15.7056 16.8735 15.9807C16.7564 16.2558 16.6978 16.5942 16.6978 16.9959C16.6978 17.392 16.7564 17.7304 16.8735 18.011C16.9906 18.2916 17.1637 18.5062 17.3928 18.6547C17.627 18.7978 17.9146 18.8693 18.2558 18.8693C18.4187 18.8693 18.5842 18.8473 18.7522 18.8033C18.9253 18.7593 19.0908 18.6905 19.2486 18.597C19.381 18.5254 19.4981 18.5007 19.5999 18.5227C19.7068 18.5392 19.7934 18.5887 19.8596 18.6713C19.9309 18.7483 19.9741 18.8418 19.9894 18.9519C20.0098 19.0619 19.9996 19.1719 19.9589 19.282C19.9181 19.392 19.8418 19.4856 19.7297 19.5626C19.5414 19.7001 19.3097 19.8074 19.0348 19.8845C18.7598 19.9615 18.4874 20 18.2176 20Z" fill="white"/>
<path d="M10.9378 19.9835C10.785 19.9835 10.6577 19.9395 10.5559 19.8514C10.4592 19.7579 10.4032 19.6451 10.3879 19.5131C10.3726 19.3755 10.4133 19.2352 10.5101 19.0922L12.1979 16.674V17.2435L10.5788 14.9161C10.4821 14.7675 10.4388 14.6272 10.449 14.4952C10.4643 14.3576 10.5203 14.2448 10.617 14.1568C10.7188 14.0633 10.8436 14.0165 10.9912 14.0165C11.1185 14.0165 11.228 14.0495 11.3196 14.1155C11.4164 14.1816 11.5131 14.2861 11.6098 14.4292L12.87 16.3109H12.4881L13.7406 14.4292C13.8373 14.2806 13.9341 14.1761 14.0308 14.1155C14.1275 14.0495 14.2395 14.0165 14.3668 14.0165C14.5196 14.0165 14.6443 14.0605 14.7411 14.1485C14.8429 14.2366 14.8989 14.3494 14.9091 14.4869C14.9243 14.619 14.8811 14.762 14.7792 14.9161L13.1525 17.2435V16.674L14.8327 19.0922C14.9345 19.2352 14.9778 19.3755 14.9625 19.5131C14.9523 19.6451 14.8963 19.7579 14.7945 19.8514C14.6978 19.9395 14.5705 19.9835 14.4127 19.9835C14.2905 19.9835 14.181 19.9505 14.0843 19.8844C13.9926 19.8184 13.8959 19.7111 13.794 19.5626L12.4805 17.6066H12.87L11.5564 19.5626C11.4596 19.7111 11.3629 19.8184 11.2662 19.8844C11.1694 19.9505 11.06 19.9835 10.9378 19.9835Z" fill="white"/>
<path d="M6.61861 19.9092C6.42004 19.9092 6.2673 19.8515 6.16038 19.7359C6.05346 19.6204 6 19.4553 6 19.2407V14.7593C6 14.5447 6.05346 14.3797 6.16038 14.2641C6.2673 14.1486 6.42004 14.0908 6.61861 14.0908H9.28397C9.43671 14.0908 9.55126 14.1348 9.62764 14.2228C9.7091 14.3054 9.74983 14.4264 9.74983 14.586C9.74983 14.751 9.7091 14.8776 9.62764 14.9656C9.55126 15.0482 9.43671 15.0894 9.28397 15.0894H7.1303V16.4512H9.10831C9.26615 16.4512 9.38325 16.4952 9.45962 16.5832C9.54108 16.6658 9.58181 16.7896 9.58181 16.9546C9.58181 17.1197 9.54108 17.2462 9.45962 17.3343C9.38325 17.4168 9.26615 17.4581 9.10831 17.4581H7.1303V18.9106H9.28397C9.43671 18.9106 9.55126 18.9546 9.62764 19.0426C9.7091 19.1252 9.74983 19.2462 9.74983 19.4058C9.74983 19.5708 9.7091 19.6974 9.62764 19.7854C9.55126 19.868 9.43671 19.9092 9.28397 19.9092H6.61861Z" fill="white"/>
</g>
<defs>
<clipPath id="clip0_3275_2902">
<rect width="20" height="20" fill="white"/>
</clipPath>
</defs>
</svg>
