<svg width="163" height="36" viewBox="0 0 163 36" fill="none" xmlns="http://www.w3.org/2000/svg">
<g clip-path="url(#clip0_3502_2931)">
<path d="M35.0556 35.9592H1.16016L18.1084 18.9365L35.0556 35.9592Z" fill="#E34935"/>
<path d="M17.1573 17.9797L0.208984 35.0047V0.957031L17.1573 17.9797Z" fill="#E34935"/>
<path d="M35.0556 0L18.1084 17.025L1.16016 0H35.0556Z" fill="#E34935"/>
<path d="M46.6535 19.7309L45.3715 21.1393V24.9222H42.6074V11.0391H45.3715V17.3768L51.04 11.0391H54.5658L48.4568 17.7391L54.8265 24.921H51.2209L46.6535 19.7309Z" fill="#091E42"/>
<path d="M65.5028 14.6605V24.921H62.8983V23.6943C62.0769 24.5994 60.9354 25.1625 59.5736 25.1625C56.7286 25.1625 54.5859 22.849 54.5859 19.7907C54.5859 16.7324 56.7298 14.4189 59.5736 14.4189C60.9354 14.4189 62.0769 14.9821 62.8983 15.8872V14.6605H65.5028ZM62.8983 19.7907C62.8983 18.1815 61.696 16.9536 60.0736 16.9536C58.4713 16.9536 57.2691 18.1803 57.2691 19.7907C57.2691 21.4011 58.4713 22.6278 60.0736 22.6278C61.696 22.6278 62.8983 21.4011 62.8983 19.7907Z" fill="#091E42"/>
<path d="M78.5782 19.7907C78.5782 22.849 76.4547 25.1625 73.6108 25.1625C72.2491 25.1625 71.1075 24.6197 70.2861 23.6943V28.7445H67.6816V14.6605H70.2861V15.8872C71.1075 14.9618 72.2491 14.4189 73.6108 14.4189C76.4558 14.4189 78.5782 16.7336 78.5782 19.7907ZM75.894 19.7907C75.894 18.1815 74.712 16.9536 73.0895 16.9536C71.4873 16.9536 70.285 18.1803 70.285 19.7907C70.285 21.4011 71.4873 22.6278 73.0895 22.6278C74.7131 22.6278 75.894 21.4011 75.894 19.7907Z" fill="#091E42"/>
<path d="M79.8184 11.5221C79.8184 10.5968 80.5397 9.89258 81.4611 9.89258C82.3824 9.89258 83.1037 10.5968 83.1037 11.5221C83.1037 12.4475 82.3824 13.1517 81.4611 13.1517C80.5397 13.1517 79.8184 12.4475 79.8184 11.5221ZM80.1588 14.6606H82.7633V24.9211H80.1588V14.6606Z" fill="#091E42"/>
<path d="M88.6117 17.0553V21.32C88.6117 22.1856 89.0926 22.628 90.014 22.628C90.5353 22.628 90.9758 22.4666 91.3555 22.286V24.7202C90.7949 25.0216 90.214 25.1626 89.4522 25.1626C87.1084 25.1626 86.0072 23.7948 86.0072 21.7421V17.0542H84.3848V14.6606H86.0072V12.0649H88.6117V14.6606H91.3555V17.0542H88.6117V17.0553Z" fill="#091E42"/>
<path d="M103.634 14.6605V24.921H101.029V23.6943C100.208 24.5994 99.0662 25.1625 97.7044 25.1625C94.8595 25.1625 92.7168 22.849 92.7168 19.7907C92.7168 16.7324 94.8595 14.4189 97.7044 14.4189C99.0662 14.4189 100.208 14.9821 101.029 15.8872V14.6605H103.634ZM101.03 19.7907C101.03 18.1815 99.828 16.9536 98.2055 16.9536C96.6033 16.9536 95.4011 18.1803 95.4011 19.7907C95.4011 21.4011 96.6033 22.6278 98.2055 22.6278C99.828 22.6278 101.03 21.4011 101.03 19.7907Z" fill="#091E42"/>
<path d="M105.805 10.4365H108.409V24.9223H105.805V10.4365Z" fill="#091E42"/>
<path d="M126.457 21.1597C126.457 23.3524 124.794 24.9222 122.572 24.9222H115.621V11.0391H122.111C124.174 11.0391 125.776 12.5276 125.776 14.5803C125.776 15.8883 125.095 17.0349 124.174 17.5585C125.515 18.0404 126.457 19.5098 126.457 21.1597ZM118.304 13.5342V16.5925H121.429C122.25 16.5925 122.931 15.9289 122.931 15.0634C122.931 14.1978 122.291 13.5342 121.429 13.5342H118.304ZM123.613 20.6766C123.613 19.7106 122.872 18.9466 121.891 18.9466H118.305V22.427H121.891C122.872 22.427 123.613 21.6619 123.613 20.6766Z" fill="#091E42"/>
<path d="M138.776 14.6605V24.921H136.172V23.6943C135.35 24.5994 134.209 25.1625 132.847 25.1625C130.002 25.1625 127.859 22.849 127.859 19.7907C127.859 16.7324 130.002 14.4189 132.847 14.4189C134.209 14.4189 135.35 14.9821 136.172 15.8872V14.6605H138.776ZM136.172 19.7907C136.172 18.1815 134.969 16.9536 133.347 16.9536C131.745 16.9536 130.543 18.1803 130.543 19.7907C130.543 21.4011 131.745 22.6278 133.347 22.6278C134.971 22.6278 136.172 21.4011 136.172 19.7907Z" fill="#091E42"/>
<path d="M150.791 18.403V24.9214H148.187V19.2482C148.187 17.8602 147.306 16.9551 145.943 16.9551C144.52 16.9551 143.56 17.8805 143.56 19.2889V24.9225H140.955V14.6619H143.56V15.8085C144.361 14.9034 145.482 14.4204 146.804 14.4204C149.209 14.4193 150.791 15.9891 150.791 18.403Z" fill="#091E42"/>
<path d="M156.381 21.381L155.479 22.3673V24.9223H152.875V10.4365H155.479V18.8666L159.246 14.6617H162.611L158.224 19.4094L162.751 24.9223H159.345L156.381 21.381Z" fill="#091E42"/>
</g>
<defs>
<clipPath id="clip0_3502_2931">
<rect width="163" height="36" fill="white"/>
</clipPath>
</defs>
</svg>
